<svg width="58" height="23" viewBox="0 0 58 23" fill="none" xmlns="http://www.w3.org/2000/svg">
<path d="M7.35849 4.5L8 8.5L6 7.38235L7.35849 4.5Z" stroke="black" stroke-opacity="0.43"/>
<path d="M5.43382 7.02483L7.82155 7.7362L6.33442 8.95766L5.43382 7.02483Z" stroke="black" stroke-opacity="0.1"/>
<path d="M10 9.85849L8 10.5L8.55882 8.5L10 9.85849Z" stroke="#EC0808" stroke-opacity="0.43"/>
<path d="M8.26251 8.06045L7.55115 10.4482L6.32968 8.96105L8.26251 8.06045Z" stroke="black" stroke-opacity="0.1"/>
<path d="M5.96226 13.5L5 10.5L8 11.3382L5.96226 13.5Z" stroke="black" stroke-opacity="0.43"/>
<path d="M7.35351 10.9903L4.96579 10.279L6.45292 9.05749L7.35351 10.9903Z" stroke="black" stroke-opacity="0.1"/>
<path d="M2 8.46226L6 7.5L4.88235 10.5L2 8.46226Z" stroke="black" stroke-opacity="0.43"/>
<path d="M4.52483 9.9547L5.2362 7.56698L6.45766 9.05411L4.52483 9.9547Z" stroke="black" stroke-opacity="0.1"/>
<path d="M3.83831 5.5714L6.74315 7.35778L4.34428 8.44587L3.83831 5.5714Z" stroke="#D60C0C" stroke-opacity="0.43"/>
<path d="M4.44758 8.53278L6.63896 7.34742L6.45111 9.26268L4.44758 8.53278Z" stroke="black" stroke-opacity="0.1"/>
<path d="M10.1414 6.65563L8.35505 9.56047L7.26696 7.1616L10.1414 6.65563Z" stroke="black" stroke-opacity="0.43"/>
<path d="M7.18004 7.26489L8.36541 9.45628L6.45014 9.26843L7.18004 7.26489Z" stroke="black" stroke-opacity="0.1"/>
<path d="M9.21829 12.9408L6.31345 11.1544L8.71232 10.0663L9.21829 12.9408Z" stroke="black" stroke-opacity="0.43"/>
<path d="M8.60902 9.97938L6.41763 11.1647L6.60548 9.24948L8.60902 9.97938Z" stroke="black" stroke-opacity="0.1"/>
<path d="M2.91516 11.8565L4.70155 8.9517L5.78963 11.3506L2.91516 11.8565Z" stroke="#D60C0C" stroke-opacity="0.43"/>
<path d="M5.87655 11.2473L4.69118 9.05589L6.60645 9.24374L5.87655 11.2473Z" stroke="black" stroke-opacity="0.1"/>
<g filter="url(#filter0_d_2_29)">
<path d="M25.4672 18L17.8017 9.31395L15.293 11.093V18H12.7007V0H15.293V9.02616L24.5474 0H27.6136L19.4463 7.82267L28.7007 18H25.4672Z" fill="#6F6A6A"/>
</g>
<path d="M31.1527 10.72C31.1527 11.48 30.8527 12.072 30.2527 12.496C29.6607 12.912 28.8247 13.12 27.7447 13.12C25.7287 13.12 24.5607 12.42 24.2407 11.02L25.3207 10.804C25.4487 11.3 25.7167 11.664 26.1247 11.896C26.5327 12.128 27.0847 12.244 27.7807 12.244C28.5007 12.244 29.0567 12.12 29.4487 11.872C29.8407 11.624 30.0367 11.26 30.0367 10.78C30.0367 10.508 29.9767 10.288 29.8567 10.12C29.7367 9.952 29.5647 9.816 29.3407 9.712C29.1167 9.6 28.8487 9.508 28.5367 9.436C28.2327 9.356 27.8927 9.276 27.5167 9.196C26.8607 9.052 26.3647 8.908 26.0287 8.764C25.6927 8.612 25.4247 8.448 25.2247 8.272C25.0327 8.096 24.8847 7.888 24.7807 7.648C24.6767 7.408 24.6247 7.136 24.6247 6.832C24.6247 6.12 24.8927 5.576 25.4287 5.2C25.9727 4.816 26.7487 4.624 27.7567 4.624C28.7007 4.624 29.4207 4.768 29.9167 5.056C30.4127 5.344 30.7607 5.832 30.9607 6.52L29.8567 6.712C29.7367 6.272 29.5047 5.956 29.1607 5.764C28.8247 5.564 28.3527 5.464 27.7447 5.464C27.0887 5.464 26.5847 5.576 26.2327 5.8C25.8887 6.016 25.7167 6.34 25.7167 6.772C25.7167 7.028 25.7847 7.24 25.9207 7.408C26.0567 7.568 26.2487 7.708 26.4967 7.828C26.7527 7.94 27.2607 8.08 28.0207 8.248C28.2767 8.304 28.5287 8.364 28.7767 8.428C29.0327 8.484 29.2727 8.556 29.4967 8.644C29.7287 8.724 29.9447 8.824 30.1447 8.944C30.3527 9.056 30.5287 9.196 30.6727 9.364C30.8247 9.524 30.9407 9.716 31.0207 9.94C31.1087 10.156 31.1527 10.416 31.1527 10.72ZM38.2568 13V9.172H33.7928V13H32.6768V4.744H33.7928V8.236H38.2568V4.744H39.3848V13H38.2568ZM49.113 8.836C49.113 9.7 48.945 10.456 48.609 11.104C48.281 11.752 47.809 12.252 47.193 12.604C46.577 12.948 45.849 13.12 45.009 13.12C44.161 13.12 43.429 12.948 42.813 12.604C42.197 12.26 41.725 11.764 41.397 11.116C41.077 10.46 40.917 9.7 40.917 8.836C40.917 7.516 41.277 6.484 41.997 5.74C42.725 4.996 43.733 4.624 45.021 4.624C45.861 4.624 46.589 4.792 47.205 5.128C47.821 5.456 48.293 5.94 48.621 6.58C48.949 7.212 49.113 7.964 49.113 8.836ZM47.961 8.836C47.961 7.804 47.705 6.996 47.193 6.412C46.681 5.828 45.957 5.536 45.021 5.536C44.077 5.536 43.345 5.824 42.825 6.4C42.313 6.976 42.057 7.788 42.057 8.836C42.057 9.868 42.317 10.688 42.837 11.296C43.357 11.904 44.081 12.208 45.009 12.208C45.961 12.208 46.689 11.916 47.193 11.332C47.705 10.74 47.961 9.908 47.961 8.836ZM57.0491 7.228C57.0491 8.012 56.7931 8.636 56.2811 9.1C55.7771 9.556 55.0851 9.784 54.2051 9.784H51.7811V13H50.6651V4.744H54.1451C55.0651 4.744 55.7771 4.96 56.2811 5.392C56.7931 5.824 57.0491 6.436 57.0491 7.228ZM55.9211 7.24C55.9211 6.176 55.2811 5.644 54.0011 5.644H51.7811V8.896H54.0491C55.2971 8.896 55.9211 8.344 55.9211 7.24Z" fill="#A29494"/>
<defs>
<filter id="filter0_d_2_29" x="12.7007" y="0" width="19" height="23" filterUnits="userSpaceOnUse" color-interpolation-filters="sRGB">
<feFlood flood-opacity="0" result="BackgroundImageFix"/>
<feColorMatrix in="SourceAlpha" type="matrix" values="0 0 0 0 0 0 0 0 0 0 0 0 0 0 0 0 0 0 127 0" result="hardAlpha"/>
<feOffset dx="2" dy="4"/>
<feGaussianBlur stdDeviation="0.5"/>
<feComposite in2="hardAlpha" operator="out"/>
<feColorMatrix type="matrix" values="0 0 0 0 0 0 0 0 0 0 0 0 0 0 0 0 0 0 0.25 0"/>
<feBlend mode="normal" in2="BackgroundImageFix" result="effect1_dropShadow_2_29"/>
<feBlend mode="normal" in="SourceGraphic" in2="effect1_dropShadow_2_29" result="shape"/>
</filter>
</defs>
</svg>
